<?xml version="1.0" encoding="UTF-8"?>
<svg version="1.1" xmlns="http://www.w3.org/2000/svg" width="253" height="279">
<path d="M0 0 C83.49 0 166.98 0 253 0 C253 92.07 253 184.14 253 279 C169.51 279 86.02 279 0 279 C0 186.93 0 94.86 0 0 Z " fill="#FDFDFE" transform="translate(0,0)"/>
<path d="M0 0 C2.74040279 1.92678792 5.31853519 3.95805426 7.89453125 6.09765625 C8.59578125 6.61457031 9.29703125 7.13148438 10.01953125 7.6640625 C14.68257885 11.22935098 16.24696825 14.47655894 17.89453125 20.09765625 C16.89873047 20.98517578 16.89873047 20.98517578 15.8828125 21.890625 C9.21906577 27.81699657 9.21906577 27.81699657 2.89453125 34.09765625 C2.43820313 34.54753906 1.981875 34.99742187 1.51171875 35.4609375 C-10.89437024 48.54903662 -13.19591602 65.91168168 -15.10546875 83.09765625 C-44.80546875 83.09765625 -74.50546875 83.09765625 -105.10546875 83.09765625 C-105.10546875 58.52563457 -101.58510072 32.82045171 -84.10546875 14.09765625 C-83.48671875 13.42605469 -82.86796875 12.75445312 -82.23046875 12.0625 C-72.50952032 2.50724955 -59.08847155 -2.54270706 -46.10546875 -5.90234375 C-45.49582275 -6.07596436 -44.88617676 -6.24958496 -44.25805664 -6.4284668 C-29.76220558 -9.61962557 -12.63566412 -7.74033765 0 0 Z " fill="#8EC5FD" transform="translate(111.10546875,135.90234375)"/>
<path d="M0 0 C10.66327804 7.81690502 15.45968149 18.06654448 19.5625 30.375 C19.5625 37.635 19.5625 44.895 19.5625 52.375 C-12.4475 52.375 -44.4575 52.375 -77.4375 52.375 C-77.4375 34.11871372 -76.01750433 21.57502359 -65.125 7 C-48.46728088 -9.2703303 -20.02320767 -12.424784 0 0 Z " fill="#8EC5FC" transform="translate(190.4375,166.625)"/>
<path d="M0 0 C2.08689357 1.22710957 4.01360886 2.55686456 5.95703125 4 C6.97990234 4.74056641 6.97990234 4.74056641 8.0234375 5.49609375 C14.03526934 10.25308403 19.01902537 16.16741514 20.27050781 23.94921875 C21.26750762 34.63064381 20.1405073 45.78868831 14.0390625 54.84765625 C7.54693332 62.64970176 -0.9112369 67.67689369 -11.04296875 69 C-20.60207075 69.87389821 -28.7970153 68.72758776 -36.7421875 63.08203125 C-43.18014586 57.64489153 -49.59004889 50.60815962 -51.04296875 42 C-51.89610796 28.05445518 -50.0082086 17.09473821 -40.73046875 6.3125 C-29.33761204 -3.49065578 -14.02064875 -6.86287969 0 0 Z " fill="#8FC6FD" transform="translate(93.04296875,49)"/>
<path d="M0 0 C4.54159414 3.37979099 9.13195726 7.88891453 11.6875 13 C11.83923086 15.92957281 11.91895226 18.81945745 11.9375 21.75 C11.958125 22.54921875 11.97875 23.3484375 12 24.171875 C12.03854437 30.03061862 11.08867055 34.13388131 7.21484375 38.7578125 C0.29689909 44.70690496 -7.36033627 47.88089318 -16.5703125 47.515625 C-22.8055749 46.3431825 -28.09352542 42.66307716 -32.3125 38 C-37.04385918 30.90296123 -37.22321297 23.29128267 -36.3125 15 C-33.95722519 8.33373113 -28.47004703 3.5147194 -22.54296875 -0.0703125 C-15.48666031 -3.36820823 -7.24812306 -2.18811262 0 0 Z " fill="#90C8FD" transform="translate(171.3125,103)"/>
<path d="M0 0 C0.66 0.33 1.32 0.66 2 1 C-3.28 6.28 -8.56 11.56 -14 17 C-14 12.08113186 -10.31173311 9.3948461 -7 6 C-4.72300284 3.91201998 -2.39497582 1.9550823 0 0 Z " fill="#EBF9FE" transform="translate(124,159)"/>
<path d="M0 0 C0.66 0.33 1.32 0.66 2 1 C-1.63 4.63 -5.26 8.26 -9 12 C-9.33 11.34 -9.66 10.68 -10 10 C-8.90033225 8.70450101 -7.79508199 7.41373929 -6.6875 6.125 C-6.07261719 5.40570313 -5.45773438 4.68640625 -4.82421875 3.9453125 C-3 2 -3 2 0 0 Z " fill="#9DC9F4" transform="translate(147,104)"/>
<path d="M0 0 C0.66 0.33 1.32 0.66 2 1 C-2 5 -6 9 -10 13 C-8.04643572 7.30210418 -4.98086349 3.37987165 0 0 Z " fill="#9DC8F2" transform="translate(57,51)"/>
<path d="M0 0 C0 3 0 3 -1.96875 5.26171875 C-2.8040625 6.06222656 -3.639375 6.86273438 -4.5 7.6875 C-5.3353125 8.49574219 -6.170625 9.30398437 -7.03125 10.13671875 C-7.6809375 10.75160156 -8.330625 11.36648437 -9 12 C-9 8.00102358 -7.64683965 6.93298448 -5 4 C-3.36643049 2.62631655 -1.7074998 1.28062485 0 0 Z " fill="#9EC7F2" transform="translate(133,167)"/>
</svg>
