<?xml version="1.0" encoding="UTF-8"?>
<svg version="1.1" xmlns="http://www.w3.org/2000/svg" width="675" height="220">
<path d="M0 0 C222.75 0 445.5 0 675 0 C675 72.6 675 145.2 675 220 C452.25 220 229.5 220 0 220 C0 147.4 0 74.8 0 0 Z " fill="#FEFEFE" transform="translate(0,0)"/>
<path d="M0 0 C9.58428269 7.33097307 9.58428269 7.33097307 11.42578125 12.85546875 C10.84570312 13.27957031 10.265625 13.70367187 9.66796875 14.140625 C-1.11603999 22.23752925 -6.94799644 30.52234011 -9.57421875 43.85546875 C-9.90421875 47.48546875 -10.23421875 51.11546875 -10.57421875 54.85546875 C-30.37421875 54.85546875 -50.17421875 54.85546875 -70.57421875 54.85546875 C-70.57421875 37.42216603 -67.79640595 23.63878949 -57.26171875 9.48046875 C-43.13094359 -4.32168373 -17.86663971 -10.88546356 0 0 Z " fill="#8DC6FF" transform="translate(74.57421875,129.14453125)"/>
<path d="M0 0 C4.95 0 9.9 0 15 0 C15.33 7.26 15.66 14.52 16 22 C18.31 20.68 20.62 19.36 23 18 C30.17979732 16.6247416 36.50602272 17.85165584 42.80859375 21.453125 C48.65148226 25.57751689 52.57484388 30.94430906 54 38 C55.00848838 46.74023263 54.23193915 53.77433646 49 61 C43.68702553 67.10992064 37.8572583 70.12903222 29.8984375 71.3125 C24.4577488 71.64860432 21.36380082 69.90920055 17 67 C16.67 67.99 16.34 68.98 16 70 C10.72 70 5.44 70 0 70 C0 46.9 0 23.8 0 0 Z " fill="#253441" transform="translate(615,92)"/>
<path d="M0 0 C5.28 0 10.56 0 16 0 C16 8.91 16 17.82 16 27 C24.91 27 33.82 27 43 27 C43 18.09 43 9.18 43 0 C47.95 0 52.9 0 58 0 C58 22.77 58 45.54 58 69 C52.72 69 47.44 69 42 69 C42 60.09 42 51.18 42 42 C33.75 42 25.5 42 17 42 C17 50.91 17 59.82 17 69 C11.39 69 5.78 69 0 69 C0 46.23 0 23.46 0 0 Z " fill="#283745" transform="translate(485,93)"/>
<path d="M0 0 C14.52 0 29.04 0 44 0 C44 4.62 44 9.24 44 14 C30.635 14.495 30.635 14.495 17 15 C16.67 18.96 16.34 22.92 16 27 C22.93 27 29.86 27 37 27 C37 31.62 37 36.24 37 41 C30.07 41 23.14 41 16 41 C16 45.29 16 49.58 16 54 C25.57 54 35.14 54 45 54 C45 58.95 45 63.9 45 69 C30.15 69 15.3 69 0 69 C0 46.23 0 23.46 0 0 Z " fill="#283644" transform="translate(176,93)"/>
<path d="M0 0 C0.84272461 0.00757324 1.68544922 0.01514648 2.55371094 0.02294922 C8.65018242 0.18500133 13.52869999 0.87569033 18.625 4.4375 C19.55119141 5.02144531 19.55119141 5.02144531 20.49609375 5.6171875 C27.18708006 10.48074314 30.66602518 18.6016007 32.625 26.4375 C32.625 30.7275 32.625 35.0175 32.625 39.4375 C11.175 39.4375 -10.275 39.4375 -32.375 39.4375 C-32.375 26.57098206 -30.7111122 17.14463397 -21.67578125 7.65234375 C-15.06550562 1.6065411 -8.77367876 -0.10971452 0 0 Z " fill="#8DC6FF" transform="translate(107.375,144.5625)"/>
<path d="M0 0 C7.0237681 4.04294945 10.01169388 8.28508165 12.5625 15.9375 C12.5625 20.5575 12.5625 25.1775 12.5625 29.9375 C1.0125 29.9375 -10.5375 29.9375 -22.4375 29.9375 C-19.15921131 34.75125192 -19.15921131 34.75125192 -16.4375 35.9375 C-14.35604396 36.03524794 -12.27124453 36.06725741 -10.1875 36.0625 C-8.50914062 36.06636719 -8.50914062 36.06636719 -6.796875 36.0703125 C-3.44086129 36.04021272 -3.44086129 36.04021272 -0.2578125 35.21484375 C2.5625 34.9375 2.5625 34.9375 4.6796875 36.37109375 C5.25976562 37.03238281 5.83984375 37.69367188 6.4375 38.375 C7.03304687 39.03371094 7.62859375 39.69242188 8.2421875 40.37109375 C8.67789063 40.88800781 9.11359375 41.40492188 9.5625 41.9375 C8.15220826 46.16837523 5.71315402 46.86186275 1.890625 48.86328125 C-0.97935323 50.18751617 -3.27553132 50.74391008 -6.4375 50.9375 C-7.17613281 50.999375 -7.91476562 51.06125 -8.67578125 51.125 C-17.24463747 51.55144386 -24.10834517 49.08849366 -30.8125 43.75 C-37.01216956 37.78877927 -38.66791096 32.01797647 -39.0625 23.5 C-38.83841517 16.2859142 -37.34338375 11.2939241 -32.4375 5.9375 C-23.09049294 -1.91726558 -11.59423662 -5.34037566 0 0 Z " fill="#273644" transform="translate(332.4375,112.0625)"/>
<path d="M0 0 C5.28 0 10.56 0 16 0 C16.33 2.31 16.66 4.62 17 7 C17.48210937 6.57847656 17.96421875 6.15695313 18.4609375 5.72265625 C19.09257812 5.17480469 19.72421875 4.62695312 20.375 4.0625 C21.31472656 3.24458984 21.31472656 3.24458984 22.2734375 2.41015625 C26.78536533 -1.27492507 32.45063328 -0.5163893 38 0 C43.42351066 2.5638414 47.3443959 6.83816154 50.12841797 12.1550293 C51.298137 15.97316259 51.24737141 19.63055648 51.1953125 23.58203125 C51.1924826 24.39621017 51.18965271 25.2103891 51.18673706 26.04924011 C51.17558584 28.637146 51.15049083 31.22469958 51.125 33.8125 C51.11496365 35.57226061 51.10583894 37.33202667 51.09765625 39.09179688 C51.0756631 43.39466598 51.04116836 47.69727336 51 52 C46.05 52 41.1 52 36 52 C35.93941406 49.66421875 35.87882812 47.3284375 35.81640625 44.921875 C35.75456297 42.65475399 35.69119764 40.38768027 35.62768555 38.12060547 C35.58442662 36.54740626 35.54274526 34.97416283 35.50268555 33.40087891 C35.44476338 31.13690885 35.38113286 28.87315949 35.31640625 26.609375 C35.29969376 25.90818542 35.28298126 25.20699585 35.26576233 24.48455811 C35.16648978 21.19766179 34.99187328 18.14857995 34 15 C29.16424546 14.01135685 26.0752681 13.45259079 21.5625 15.75 C18.44188463 18.49005252 17.09930027 20.00768164 16.68115234 24.1862793 C16.64973145 25.46929932 16.61831055 26.75231934 16.5859375 28.07421875 C16.56657135 28.7580513 16.5472052 29.44188385 16.5272522 30.1464386 C16.46756003 32.32666625 16.42111369 34.50694702 16.375 36.6875 C16.33681057 38.1673405 16.29775826 39.647159 16.2578125 41.12695312 C16.16024481 44.75118641 16.08059845 48.37519062 16 52 C10.72 52 5.44 52 0 52 C0 34.84 0 17.68 0 0 Z " fill="#273543" transform="translate(354,110)"/>
<path d="M0 0 C5.28 0 10.56 0 16 0 C16 17.16 16 34.32 16 52 C10.72 52 5.44 52 0 52 C-0.495 48.535 -0.495 48.535 -1 45 C-1.721875 45.78375 -2.44375 46.5675 -3.1875 47.375 C-8.08773213 51.94854999 -12.6948767 52.53000988 -19.21484375 52.36328125 C-24.59468938 51.66156225 -28.10560883 49.42327557 -31.43676758 45.16210938 C-36.36313225 36.65577453 -35.55944404 27.87815218 -35.3125 18.375 C-35.28737433 16.6862311 -35.26456873 14.99742601 -35.24414062 13.30859375 C-35.18950835 9.20482268 -35.10347787 5.1028181 -35 1 C-30.05 1 -25.1 1 -20 1 C-19.96261719 3.25199219 -19.92523437 5.50398438 -19.88671875 7.82421875 C-19.84045179 10.01531454 -19.78923721 12.20624298 -19.73754883 14.3972168 C-19.70438084 15.91501621 -19.67632368 17.43293656 -19.65356445 18.95092773 C-19.61986722 21.13838019 -19.56754796 23.32473264 -19.51171875 25.51171875 C-19.48553467 26.82615967 -19.45935059 28.14060059 -19.43237305 29.49487305 C-18.97935471 33.16736556 -18.32025257 35.13663044 -16 38 C-11.6647876 38.73616814 -9.5508136 38.30138857 -5.6875 36.1875 C-2.85430578 34.10119391 -2.85430578 34.10119391 -1 31 C-0.62967783 27.70229658 -0.62967783 27.70229658 -0.5859375 23.92578125 C-0.56657135 23.2419487 -0.5472052 22.55811615 -0.5272522 21.8535614 C-0.46756003 19.67333375 -0.42111369 17.49305298 -0.375 15.3125 C-0.33681057 13.8326595 -0.29775826 12.352841 -0.2578125 10.87304688 C-0.16024481 7.24881359 -0.08059845 3.62480938 0 0 Z " fill="#263543" transform="translate(589,110)"/>
<path d="M0 0 C6.18636225 3.47327542 10.89135573 8.08556235 12.84375 15.03515625 C13.79021183 23.01555032 13.33681772 30.45165998 8.3671875 36.97265625 C3.47958876 42.32892884 -1.11610485 44.58456362 -8.2734375 45.3828125 C-15.60048157 45.71278331 -20.65346397 45.03654948 -26.15625 40.03515625 C-30.62565165 35.6457439 -33.7842749 31.58099686 -34.45703125 25.16796875 C-34.49132033 16.36710515 -32.91969595 10.19133272 -26.875 3.61328125 C-19.40797007 -3.24280987 -9.18294457 -4.04576451 0 0 Z " fill="#8EC6FF" transform="translate(62.15625,70.96484375)"/>
<path d="M0 0 C4.95 0 9.9 0 15 0 C19.19401859 8.21685274 23.16245182 16.44384483 26.77758789 24.93164062 C28.00926131 28.20233119 28.00926131 28.20233119 30 31 C34.62 20.77 39.24 10.54 44 0 C48.95 0 53.9 0 59 0 C58.2640589 3.67970551 57.67189601 6.06889111 56.17407227 9.34375 C55.80020889 10.16810547 55.42634552 10.99246094 55.04115295 11.84179688 C54.63698654 12.71900391 54.23282013 13.59621094 53.81640625 14.5 C53.40083969 15.41330078 52.98527313 16.32660156 52.55711365 17.26757812 C51.23050953 20.18066569 49.89677878 23.09042075 48.5625 26 C47.23322386 28.91021252 45.90542731 31.82109303 44.57859802 34.73242188 C43.75340204 36.54180965 42.92653633 38.3504371 42.09779358 40.15820312 C41.72077805 40.98255859 41.34376251 41.80691406 40.95532227 42.65625 C40.46020897 43.73616211 40.46020897 43.73616211 39.95509338 44.83789062 C38.91153517 47.20026382 37.95915342 49.60211644 37 52 C32.38 52 27.76 52 23 52 C17.9068801 42.01454022 13.17300233 31.92210325 8.63598633 21.67285156 C7.54443848 19.20923527 6.44533064 16.74908149 5.34570312 14.2890625 C4.64798926 12.71894911 3.95070667 11.14864398 3.25390625 9.578125 C2.92588516 8.84491028 2.59786407 8.11169556 2.25990295 7.35626221 C0 2.22975401 0 2.22975401 0 0 Z " fill="#283644" transform="translate(228,110)"/>
<path d="M0 0 C4.95 0 9.9 0 15 0 C15 4.29 15 8.58 15 13 C18.63 13 22.26 13 26 13 C26 16.96 26 20.92 26 25 C22.37 25 18.74 25 15 25 C15.33 33.25 15.66 41.5 16 50 C19.63 50 23.26 50 27 50 C27 54.29 27 58.58 27 63 C23.01998968 63.99500258 19.65451805 64.23544515 15.5625 64.3125 C13.61537109 64.36857422 13.61537109 64.36857422 11.62890625 64.42578125 C7.34977712 63.92370905 5.89267959 63.15796943 3 60 C-1.18252457 53.3859861 -0.33706883 46.15982962 -0.1875 38.5625 C-0.17396484 37.25861328 -0.16042969 35.95472656 -0.14648438 34.61132812 C-0.11127334 31.40712378 -0.06202094 28.20377895 0 25 C-2.31 25 -4.62 25 -7 25 C-7 21.04 -7 17.08 -7 13 C-4.69 13 -2.38 13 0 13 C0 8.71 0 4.42 0 0 Z " fill="#243341" transform="translate(420,98)"/>
<path d="M0 0 C3.40920514 2.411389 5.69634878 5.08019755 7.5625 8.8125 C8.08363171 14.04090334 8.20523534 18.45286754 5.9375 23.25 C1.72849676 27.79129296 -2.44191792 30.46007858 -8.625 31.1875 C-14.17538467 30.64156052 -18.12300742 28.42521851 -21.83203125 24.23828125 C-24.81018669 19.72369227 -25.38493276 15.10072161 -24.4375 9.8125 C-19.10034028 -0.86181944 -11.15900649 -3.85492951 0 0 Z " fill="#8FC7FF" transform="translate(114.4375,107.1875)"/>
<path d="M0 0 C3.43615111 2.12017834 5.80717883 4.09622164 7 8 C7.4583991 12.73679066 7.47747465 15.02668629 5.375 19.3125 C1.7845124 23.37542018 -1.20057813 24.77901837 -6.5625 25.4375 C-10.6153857 24.92167818 -12.14159877 23.85840123 -15 21 C-18.11027212 16.33459182 -17.60536455 11.46304595 -17 6 C-12.98953195 -1.16155008 -7.45242857 -1.84979923 0 0 Z " fill="#F9F9FA" transform="translate(647,124)"/>
<path d="M0 0 C3.0625 1.875 3.0625 1.875 5 4 C5 4.99 5 5.98 5 7 C-1.93 7 -8.86 7 -16 7 C-14 2 -14 2 -11.9375 0.125 C-7.74813936 -1.47943599 -4.29908393 -1.15834269 0 0 Z " fill="#F0F1F2" transform="translate(326,124)"/>
</svg>
